<svg xmlns="http://www.w3.org/2000/svg" viewBox="0 0 620 180" role="img" aria-labelledby="title desc">
  <title id="title">Healing Energy Therapy</title>
  <desc id="desc">A plum lotus with sage leaves and brown roots beside the business name.</desc>
  <defs>
    <linearGradient id="petal" x1="0" y1="0" x2="1" y2="1"><stop offset="0" stop-color="#85638f"/><stop offset="1" stop-color="#4f3a59"/></linearGradient>
    <linearGradient id="leaf" x1="0" y1="0" x2="1" y2="1"><stop offset="0" stop-color="#8ba084"/><stop offset="1" stop-color="#4e624c"/></linearGradient>
  </defs>
  <g transform="translate(20 12) scale(1.3)">
    <path d="M60 90C41 82 30 67 31 49c13 5 24 15 29 29 5-14 16-24 29-29 1 18-10 33-29 41Z" fill="url(#petal)"/>
    <path d="M60 77C48 65 45 48 60 28c15 20 12 37 0 49Z" fill="#6a4d73"/>
    <path d="M58 91c-20 3-34-4-43-20 17-5 32-1 43 12" fill="url(#leaf)"/>
    <path d="M62 91c20 3 34-4 43-20-17-5-32-1-43 12" fill="url(#leaf)"/>
    <path d="M60 88v18" stroke="#6f543f" stroke-width="4" stroke-linecap="round"/>
    <path d="M60 100c-8 0-15 3-20 8m20-8c8 0 15 3 20 8" fill="none" stroke="#6f543f" stroke-width="3" stroke-linecap="round"/>
  </g>
  <text x="190" y="82" fill="#2f2334" font-family="Georgia, 'Times New Roman', serif" font-size="44">Healing Energy Therapy</text>
  <text x="193" y="122" fill="#4e624c" font-family="Arial, sans-serif" font-weight="700" letter-spacing="4" font-size="17">HEALING TOUCH &amp; REFLEXOLOGY</text>
  <text x="193" y="152" fill="#5f4a3c" font-family="Arial, sans-serif" font-size="17">Anne Noble Rude, RN, MA, CHTP</text>
</svg>
